<?xml version="1.0" standalone="no"?>
<!DOCTYPE svg PUBLIC "-//W3C//DTD SVG 20010904//EN"
 "http://www.w3.org/TR/2001/REC-SVG-20010904/DTD/svg10.dtd">
<svg version="1.0" xmlns="http://www.w3.org/2000/svg"
 width="500.000000pt" height="500.000000pt" viewBox="0 0 500.000000 500.000000"
 preserveAspectRatio="xMidYMid meet">
<metadata>
Created by potrace 1.16, written by Peter Selinger 2001-2019
</metadata>
<g transform="translate(0.000000,500.000000) scale(0.100000,-0.100000)"
fill="#000000" stroke="none">
<path d="M2643 2983 c-12 -26 -81 -190 -153 -363 -73 -173 -139 -330 -147
-347 l-13 -33 49 0 49 0 39 98 39 97 150 3 149 2 39 -100 39 -100 58 0 58 0
-20 48 c-11 26 -84 198 -161 382 -77 184 -143 341 -147 348 -5 9 -15 -2 -28
-35z m73 -315 l51 -133 -105 -3 c-57 -1 -106 -1 -109 1 -4 5 100 267 107 267
3 0 28 -60 56 -132z"/>
<path d="M1101 2999 c-108 -21 -206 -99 -256 -204 -37 -77 -46 -211 -21 -297
32 -110 112 -196 223 -239 102 -39 258 -27 340 27 l23 15 -20 39 c-11 22 -23
40 -26 40 -2 0 -24 -10 -47 -22 -34 -18 -58 -23 -127 -23 -76 0 -91 3 -139 30
-204 113 -181 431 37 527 58 26 158 21 221 -10 50 -25 53 -23 76 31 l15 38
-43 18 c-87 38 -169 47 -256 30z"/>
<path d="M1580 2620 l0 -380 50 0 50 0 2 168 3 167 198 3 197 2 0 -170 0 -170
50 0 50 0 0 380 0 380 -50 0 -50 0 0 -165 0 -165 -200 0 -200 0 0 165 0 165
-50 0 -50 0 0 -380z"/>
<path d="M3232 2974 c-59 -29 -85 -60 -102 -123 -28 -104 26 -187 158 -241
149 -62 192 -99 192 -167 0 -113 -149 -156 -293 -85 l-57 29 -21 -33 c-11 -19
-18 -38 -14 -44 24 -38 198 -86 275 -75 71 10 144 50 176 97 26 37 29 50 29
118 0 67 -3 82 -28 119 -24 36 -44 50 -115 82 -189 86 -207 100 -205 167 3 93
131 125 269 67 20 -8 38 -14 39 -13 1 2 10 18 20 37 20 40 18 42 -74 71 -92
29 -183 27 -249 -6z"/>
<path d="M3866 2986 c-43 -16 -91 -58 -112 -98 -8 -15 -14 -53 -14 -85 0 -99
41 -144 194 -209 48 -20 103 -52 122 -69 29 -28 34 -39 34 -77 0 -119 -143
-163 -291 -89 l-59 30 -20 -39 -20 -39 33 -19 c57 -35 129 -55 207 -55 104 -2
177 32 221 100 28 45 30 53 27 125 -5 116 -30 142 -229 231 -42 19 -86 45 -97
58 -24 25 -29 77 -12 110 29 53 143 68 240 30 30 -11 56 -21 57 -21 5 0 33 59
33 68 0 5 -24 20 -52 32 -67 29 -203 38 -262 16z"/>
</g>
</svg>
