<?xml version="1.0" encoding="utf-8"?>
<!-- Generator: Adobe Illustrator 25.2.1, SVG Export Plug-In . SVG Version: 6.00 Build 0)  -->
<svg version="1.1" xmlns="http://www.w3.org/2000/svg" xmlns:xlink="http://www.w3.org/1999/xlink" x="0px" y="0px"
	 viewBox="0 0 841.9 595.3" style="enable-background:new 0 0 841.9 595.3;" xml:space="preserve">
<style type="text/css">
	.st0{fill:#F6F6F6;}
	.st1{fill:none;stroke:#B2B2B2;stroke-width:6;stroke-miterlimit:10;}
	.st2{font-family:'SourceSansPro-SemiBold';}
	.st3{font-size:23px;}
	.st4{fill:#009FE3;stroke:#009FE3;stroke-miterlimit:10;}
	.st5{font-family:'SourceSansPro-Bold';}
	.st6{font-size:25px;}
	.st7{fill:none;stroke:#009FE3;stroke-width:4;stroke-miterlimit:10;}
	.st8{display:none;}
	.st9{display:inline;fill:none;}
</style>
<g id="Layer_2">
	<g>
		<g>
			<g>
				<path class="st0" d="M647.8,336c-2.5-8.7-6.4-15.3-14.2-28.4c-6.9-11.6-10.5-17.7-16.9-25.7c-2.7-3.4-12.7-15.4-29.1-27.7
					c-12.3-9.2-22.7-14.4-25-15.5c-2.1-1-6.5-3.1-12.7-5.5c-1.6,11.4-4.5,20-6.8,27.1c-8.5,25.4-20.6,42.4-23.6,46.6
					c-7.2,9.9-19,26.1-39.7,38.9c3.6,25.9-1.7,47.3-4.9,60.4c-4.3,17.4-12.8,49.6-41.9,76.4c-5.2,4.8-10.5,8.8-15.7,12.3
					c12.2,7.3,22.7,13.4,37.3,17.4c12.9,3.6,23.2,3.7,43.9,4.1c16.8,0.3,25.9,0.4,38.5-2c20.1-3.9,34.2-11.5,37.8-13.5
					c21-11.7,33-26.6,39.2-34.5c10.9-13.9,16.4-26.1,22.3-39.2c4.3-9.5,9.1-20.4,12.2-35.8c2.5-12.8,2.7-22.7,2.7-26.4
					C651.1,357.2,651.1,347.6,647.8,336z"/>
				<path class="st1" d="M647.8,336c-2.5-8.7-6.4-15.3-14.2-28.4c-6.9-11.6-10.5-17.7-16.9-25.7c-2.7-3.4-12.7-15.4-29.1-27.7
					c-12.3-9.2-22.7-14.4-25-15.5c-2.1-1-6.5-3.1-12.7-5.5c-1.6,11.4-4.5,20-6.8,27.1c-8.5,25.4-20.6,42.4-23.6,46.6
					c-7.2,9.9-19,26.1-39.7,38.9c3.6,25.9-1.7,47.3-4.9,60.4c-4.3,17.4-12.8,49.6-41.9,76.4c-5.2,4.8-10.5,8.8-15.7,12.3
					c12.2,7.3,22.7,13.4,37.3,17.4c12.9,3.6,23.2,3.7,43.9,4.1c16.8,0.3,25.9,0.4,38.5-2c20.1-3.9,34.2-11.5,37.8-13.5
					c21-11.7,33-26.6,39.2-34.5c10.9-13.9,16.4-26.1,22.3-39.2c4.3-9.5,9.1-20.4,12.2-35.8c2.5-12.8,2.7-22.7,2.7-26.4
					C651.1,357.2,651.1,347.6,647.8,336z"/>
			</g>
			<g>
				<path class="st0" d="M389,475.2c-5.6-5-15.6-14.1-24.3-28.4c-10.4-17.1-13.2-32.5-15.5-45.3c-3.5-18.9-3-34.9-2.2-44.5
					c-11.4-4.3-19.9-9.1-25.5-12.3c-11.6-6.7-29.8-17.3-45.9-38.5c-3.9-5-17.4-23.5-24.3-51.4c-0.4-1.7-1.4-5.9-2.3-11.9
					c-16.3,10.9-27.1,23.6-34.1,32.1c-21.9,26.4-29.8,52.9-32.4,62.8c-3.9,14.9-13.5,51.7,3.4,91.9c14.5,34.5,40.6,52.5,54.1,61.5
					c8.1,5.4,58.3,37.8,123,25c10.8-2.1,32.4-6.7,54.5-21.5c-0.8-0.5-1.7-1-2.5-1.5C406.4,488.5,398.3,483.6,389,475.2z"/>
				<path class="st1" d="M389,475.2c-5.6-5-15.6-14.1-24.3-28.4c-10.4-17.1-13.2-32.5-15.5-45.3c-3.5-18.9-3-34.9-2.2-44.5
					c-11.4-4.3-19.9-9.1-25.5-12.3c-11.6-6.7-29.8-17.3-45.9-38.5c-3.9-5-17.4-23.5-24.3-51.4c-0.4-1.7-1.4-5.9-2.3-11.9
					c-16.3,10.9-27.1,23.6-34.1,32.1c-21.9,26.4-29.8,52.9-32.4,62.8c-3.9,14.9-13.5,51.7,3.4,91.9c14.5,34.5,40.6,52.5,54.1,61.5
					c8.1,5.4,58.3,37.8,123,25c10.8-2.1,32.4-6.7,54.5-21.5c-0.8-0.5-1.7-1-2.5-1.5C406.4,488.5,398.3,483.6,389,475.2z"/>
			</g>
			<g>
				<path class="st0" d="M474.8,406.3c3.3-13.1,8.6-34.6,4.9-60.4c-2.4,1.5-5,3-7.6,4.3c-17.7,9.2-33.1,11.4-47.3,13.5
					c-12.4,1.8-30.7,4.4-54.1,0c-9-1.7-16.9-4-23.8-6.6c-0.8,9.6-1.3,25.5,2.2,44.5c2.3,12.8,5.1,28.1,15.5,45.3
					c8.7,14.3,18.8,23.4,24.3,28.4c9.4,8.3,17.4,13.2,25.7,18.2c0.8,0.5,1.7,1,2.5,1.5c5.3-3.5,10.5-7.6,15.7-12.3
					C462,455.9,470.5,423.7,474.8,406.3z"/>
				<path class="st1" d="M474.8,406.3c3.3-13.1,8.6-34.6,4.9-60.4c-2.4,1.5-5,3-7.6,4.3c-17.7,9.2-33.1,11.4-47.3,13.5
					c-12.4,1.8-30.7,4.4-54.1,0c-9-1.7-16.9-4-23.8-6.6c-0.8,9.6-1.3,25.5,2.2,44.5c2.3,12.8,5.1,28.1,15.5,45.3
					c8.7,14.3,18.8,23.4,24.3,28.4c9.4,8.3,17.4,13.2,25.7,18.2c0.8,0.5,1.7,1,2.5,1.5c5.3-3.5,10.5-7.6,15.7-12.3
					C462,455.9,470.5,423.7,474.8,406.3z"/>
			</g>
			<g>
				<path class="st0" d="M349.1,225.9c11.9,1.9,36.8,6.3,63.4,23c4.8-3.2,9-5.6,12.3-7.5c12.9-7.4,24.3-13.9,40.5-17.6
					c26.3-5.9,48.2-0.7,64.9,3.4c7.8,1.9,14.4,4,19.7,6c0.2-1.5,0.4-3.1,0.6-4.7c2.8-26.1-3.1-46.9-6.8-57.4
					c-6.5-18.5-15.6-30.8-20.3-37.2c-4.1-5.5-15-19.3-33.1-32.4c-6.3-4.5-20.1-13.8-39.9-20.9c-21.4-7.7-38.8-8.9-48.6-9.5
					c-14-0.9-29-1.8-48,3.4c-4.5,1.2-21.8,6.2-40.5,19.6c-13.7,9.8-21.8,19.5-29.7,29.1c-10.8,13-21.7,26.1-29.1,46.6
					c-6.3,17.6-7,32.3-7.4,41.9c-0.5,12.7,0.5,23.6,1.7,31.4c7.5-5,16.1-9.5,26-13.1C305.6,218.8,332.1,223.1,349.1,225.9z"/>
				<path class="st1" d="M349.1,225.9c11.9,1.9,36.8,6.3,63.4,23c4.8-3.2,9-5.6,12.3-7.5c12.9-7.4,24.3-13.9,40.5-17.6
					c26.3-5.9,48.2-0.7,64.9,3.4c7.8,1.9,14.4,4,19.7,6c0.2-1.5,0.4-3.1,0.6-4.7c2.8-26.1-3.1-46.9-6.8-57.4
					c-6.5-18.5-15.6-30.8-20.3-37.2c-4.1-5.5-15-19.3-33.1-32.4c-6.3-4.5-20.1-13.8-39.9-20.9c-21.4-7.7-38.8-8.9-48.6-9.5
					c-14-0.9-29-1.8-48,3.4c-4.5,1.2-21.8,6.2-40.5,19.6c-13.7,9.8-21.8,19.5-29.7,29.1c-10.8,13-21.7,26.1-29.1,46.6
					c-6.3,17.6-7,32.3-7.4,41.9c-0.5,12.7,0.5,23.6,1.7,31.4c7.5-5,16.1-9.5,26-13.1C305.6,218.8,332.1,223.1,349.1,225.9z"/>
			</g>
			<g>
				<path class="st0" d="M465.3,223.9c-16.3,3.7-27.6,10.2-40.5,17.6c-3.3,1.9-7.5,4.3-12.3,7.5c3.8,2.4,7.7,5.1,11.6,8.1
					c12,9.2,38.4,29.9,50.7,67.6c2.4,7.4,4,14.5,4.9,21.3c20.6-12.8,32.5-29,39.7-38.9c3.1-4.2,15.1-21.2,23.6-46.6
					c2.4-7.1,5.2-15.7,6.8-27.1c-5.3-2-11.9-4.1-19.7-6C513.5,223.2,491.6,217.9,465.3,223.9z"/>
				<path class="st1" d="M465.3,223.9c-16.3,3.7-27.6,10.2-40.5,17.6c-3.3,1.9-7.5,4.3-12.3,7.5c3.8,2.4,7.7,5.1,11.6,8.1
					c12,9.2,38.4,29.9,50.7,67.6c2.4,7.4,4,14.5,4.9,21.3c20.6-12.8,32.5-29,39.7-38.9c3.1-4.2,15.1-21.2,23.6-46.6
					c2.4-7.1,5.2-15.7,6.8-27.1c-5.3-2-11.9-4.1-19.7-6C513.5,223.2,491.6,217.9,465.3,223.9z"/>
			</g>
			<g>
				<path class="st0" d="M275.5,306.3c16.2,21.2,34.3,31.8,45.9,38.5c5.6,3.2,14.1,8,25.5,12.3c0.3-3.3,0.6-5.9,0.8-7.6
					c1.5-10.8,4.2-29,15.5-49.3c8.7-15.5,18.5-25.4,25-31.8c8.7-8.6,17.1-14.9,24.2-19.5c-26.6-16.7-51.5-21.1-63.4-23
					c-17-2.8-43.5-7.1-74.3,4.1c-9.9,3.6-18.5,8.2-26,13.1c0.9,6,1.9,10.1,2.3,11.9C258.1,282.8,271.6,301.3,275.5,306.3z"/>
				<path class="st1" d="M275.5,306.3c16.2,21.2,34.3,31.8,45.9,38.5c5.6,3.2,14.1,8,25.5,12.3c0.3-3.3,0.6-5.9,0.8-7.6
					c1.5-10.8,4.2-29,15.5-49.3c8.7-15.5,18.5-25.4,25-31.8c8.7-8.6,17.1-14.9,24.2-19.5c-26.6-16.7-51.5-21.1-63.4-23
					c-17-2.8-43.5-7.1-74.3,4.1c-9.9,3.6-18.5,8.2-26,13.1c0.9,6,1.9,10.1,2.3,11.9C258.1,282.8,271.6,301.3,275.5,306.3z"/>
			</g>
			<g>
				<path class="st0" d="M424.1,257c-3.9-3-7.8-5.6-11.6-8.1c-7.1,4.7-15.5,11-24.2,19.5c-6.5,6.4-16.3,16.2-25,31.8
					c-11.3,20.3-14,38.5-15.5,49.3c-0.2,1.7-0.6,4.2-0.8,7.6c6.9,2.6,14.8,4.9,23.8,6.6c23.3,4.4,41.6,1.8,54.1,0
					c14.2-2.1,29.6-4.3,47.3-13.5c2.7-1.4,5.2-2.8,7.6-4.3c-1-6.8-2.5-14-4.9-21.3C462.5,286.9,436.1,266.2,424.1,257z"/>
				<path class="st1" d="M424.1,257c-3.9-3-7.8-5.6-11.6-8.1c-7.1,4.7-15.5,11-24.2,19.5c-6.5,6.4-16.3,16.2-25,31.8
					c-11.3,20.3-14,38.5-15.5,49.3c-0.2,1.7-0.6,4.2-0.8,7.6c6.9,2.6,14.8,4.9,23.8,6.6c23.3,4.4,41.6,1.8,54.1,0
					c14.2-2.1,29.6-4.3,47.3-13.5c2.7-1.4,5.2-2.8,7.6-4.3c-1-6.8-2.5-14-4.9-21.3C462.5,286.9,436.1,266.2,424.1,257z"/>
			</g>
		</g>
	</g>
</g>
<g id="Text">
	<text transform="matrix(1 0 0 1 330.6462 153.918)"><tspan x="0" y="0" class="st2 st3">INNOVATION </tspan><tspan x="0" y="27.6" class="st2 st3">MANAGEMENT</tspan></text>
	<text transform="matrix(1 0 0 1 196.744 383.0984)"><tspan x="0" y="0" class="st2 st3">MECHANICAL </tspan><tspan x="0" y="27.6" class="st2 st3">ENGINEERING</tspan></text>
	<text transform="matrix(1 0 0 1 493.361 383.0986)"><tspan x="0" y="0" class="st2 st3">PRODUCTION </tspan><tspan x="0" y="27.6" class="st2 st3">ENGINEERING</tspan></text>
	<text transform="matrix(1 0 0 1 573.1791 70.4983)" class="st4 st5 st6">MY EXPERTISE</text>
</g>
<g id="Layer_3">
	<g>
		<path class="st7" d="M419.4,307.6c2.2-4.1,4.5-7.7,6.8-11c2.7-3.9,5.2-7.4,7.8-10.3c3.4-3.8,6.8-6.6,9.4-8.9
			c4.3-3.7,8-6.9,11.6-9.2c4.6-3,8.9-4.5,13.8-4.2c4.3,0.2,7.8,1.5,10.7,3.7c3.2,2.4,6,5.3,8.6,7.8c3.1,3.1,5.9,5.6,9.8,5
			c3.6-0.6,6.3-3.7,8.7-7.7c2-3.3,3.7-7.2,5-11c1.5-4.8,2.7-9.2,3.2-11.7c0.9-4.1,1.2-7.4,1.4-10.4c0.2-3.5,0-6.8,0.1-10.5
			c0-3,0.1-6.4,0.4-10.5c0.3-3,0.6-6.5,1.2-10.5c0.9-5.7,2.4-9.9,3.4-13.3c2.3-8,4.6-10.2,6.5-11.5c3.6-2.5,7.8-3.7,11.9-3.5
			c5.1,0.2,9.9,1.6,12.4,2.4c2.9,0.9,5.4,2.2,9,4.6c2.2,1.5,4.8,3.3,8.2,6c2.2,1.8,4.9,3.9,7.9,6.4c3.5,3,6.5,5.5,9,7.7
			c3.9,3.3,6.6,6,8.9,7.9c4.9,4.1,7,5.2,10.3,5.3c3.9,0.2,7.6-0.9,10.9-3.1c3.2-2.1,6.1-4.9,8.6-7.8c2.8-3.3,4.8-6.9,6.6-9.5
			c2.3-3.3,4.7-6.4,6.4-9.9c1.8-3.6,3.1-7.3,4.3-11c1.2-3.8,2.1-7.7,2.8-11.4c0.8-4,1-7.9,1.3-11.7c0.3-4.2,0.8-8.1,0.8-11.7
			c0-4.4-0.2-8.4-0.4-11.8c-0.2-3.1-0.8-6.7-1.3-10.8c-0.4-3.3-0.5-7-1.2-10.8c-0.6-3.4-1.3-6.9-2.3-10.6c-0.9-3.3-2.5-6.7-3.7-10.2
			"/>
	</g>
	<g>
		<path class="st7" d="M418,279c-1.3,6.5-0.8,6.6-2.1,13.1c-1.3,6.5-1.3,6.5-2.6,13s-1.7,6.4-3,12.9"/>
	</g>
	<g>
		<path class="st7" d="M455.9,307.8c-5.9,1.5-5.9,1.2-11.8,2.7c-5.9,1.5-5.9,1.3-11.8,2.8c-5.9,1.5-5.8,2-11.6,3.5
			c-5.9,1.5-5.9,1.5-11.7,3"/>
	</g>
</g>
<g id="Layer_1" class="st8">
	
		<image style="display:inline;overflow:visible;" width="750" height="750" xlink:href="../../../../../Downloads/My+work.+Venn+Diagram.+Personal+Branding+(1).png"  transform="matrix(0.75 0 0 0.75 152.9455 16.3878)">
	</image>
	<path class="st9" d="M336.9,83.3"/>
</g>
</svg>
