<?xml version="1.0" encoding="utf-8"?>
<!-- Generator: Adobe Illustrator 19.2.1, SVG Export Plug-In . SVG Version: 6.00 Build 0)  -->
<svg version="1.1" id="layer" xmlns="http://www.w3.org/2000/svg" xmlns:xlink="http://www.w3.org/1999/xlink" x="0px" y="0px"
	 viewBox="0 0 652 652" style="enable-background:new 0 0 652 652;" xml:space="preserve">
<style type="text/css">
	.st0{fill:#EE7203;}
	.st1{fill:#9D9D9C;}
</style>
<g>
	<g>
		<path class="st0" d="M223.6,322.8c0,11.5-3.4,22-15.2,22c-11.7,0-15.2-10.5-15.2-22c0-11.3,3.3-22,15.2-22
			C220.4,300.8,223.6,311.4,223.6,322.8 M238.5,322.8c0-19.9-9.6-35.2-30-35.2c-20.3,0-30,15.3-30,35.2c0,19.7,9.7,35,30,35
			C229.1,357.8,238.5,342.6,238.5,322.8 M137.8,310.2c0,5.3-2.8,8.7-9.8,8.7h-12.3v-17.1h11.6C134.8,301.7,137.8,305.8,137.8,310.2
			 M154.1,357.9c1,0,1.5-0.8,1.1-1.7l-12.7-27.3c7.4-3.6,11.1-10.1,11.1-19.4c0-10.6-6.4-22-26.1-22H101c-0.6,0-1,0.4-1,1v68.4
			c0,0.6,0.4,1,1,1h13.3c0.6,0,1-0.4,1-1v-24.7h12.6c3.6,8.3,7.5,16.4,11.2,25.1c0.1,0.4,0.4,0.6,0.8,0.6H154.1z M36.3,320.1v-18.4
			h10.5c8,0,10.8,3.5,10.8,9.1c0,5.6-2.7,9.3-10.8,9.3H36.3z M20.6,356.8c0,0.6,0.4,1,1,1h13.2c0.6,0,1-0.4,1-1v-23.4h11.4
			c18.9,0,26.1-10.2,26.1-23.3c0-12.6-7.1-22.6-26.2-22.6H21.6c-0.6,0-1,0.4-1,1V356.8z"/>
		<path class="st1" d="M571.3,356.6c0,0.6,0.4,1,1,1h47.3c0.6,0,1-0.4,1-1V345c0-0.6-0.4-1-1-1h-33.3v-15.8h30c0.6,0,1-0.4,1-1
			v-11.6c0-0.6-0.4-1-1-1h-30v-13.3h33c0.6,0,1-0.4,1-1v-11.7c0-0.6-0.4-1-1-1h-47c-0.6,0-1,0.4-1,1V356.6z M511.5,357.1
			c0.1,0.4,0.4,0.6,0.9,0.6h13.7c0.4,0,0.8-0.2,0.9-0.6l23.8-67.9c0.2-0.8-0.3-1.5-1.1-1.5h-13.6c-0.4,0-0.8,0.2-0.9,0.6l-15.8,46.9
			l-15.5-46.9c-0.1-0.4-0.5-0.6-0.9-0.6h-14.3c-0.8,0-1.3,0.7-1.1,1.5L511.5,357.1z M455,322.8c0,11.5-3.4,22-15.2,22
			c-11.7,0-15.2-10.5-15.2-22c0-11.3,3.3-22,15.2-22C451.8,300.8,455,311.4,455,322.8 M469.9,322.8c0-19.9-9.6-35.2-30-35.2
			c-20.3,0-30,15.3-30,35.2c0,19.7,9.7,35,30,35C460.5,357.8,469.9,342.6,469.9,322.8 M350.3,356.8c0,0.6,0.4,1,1,1h45.5
			c0.6,0,1-0.4,1-1v-11.9c0-0.6-0.4-1-1-1h-31.2v-55.4c0-0.6-0.4-1-1-1h-13.3c-0.6,0-1,0.4-1,1V356.8z M321.9,356.4
			c0.6,0,0.9-0.4,0.9-0.9v-35.7c0-0.6-0.4-0.9-0.9-0.9h-26.1c-0.6,0-0.9,0.4-0.9,0.9v10.5c0,0.6,0.4,1,0.9,1h13.2
			c-0.3,8.7-3.9,13.7-12.9,13.7c-12.1,0-15.5-10.7-15.5-22.2c0-11.6,3.7-22.1,15-22.1c7.1,0,10.9,3.3,12.1,9.4
			c0.1,0.5,0.4,0.8,0.9,0.8l12.9,0.1c0.6,0,1-0.5,1-1c-0.8-12.2-11.6-22.3-26.9-22.3c-19.6,0-30,15.1-30,35.2c0,20.1,9.6,35,30.5,35
			c7.9,0,13.5-4.1,16.3-7.9l1.5,5.8c0.1,0.4,0.5,0.7,0.9,0.7H321.9z"/>
	</g>
</g>
</svg>
